<svg width="27" height="24" viewBox="0 0 27 24" fill="none" xmlns="http://www.w3.org/2000/svg">
<path fill-rule="evenodd" clip-rule="evenodd" d="M19.3016 0.333252C17.2897 0.333252 15.3604 1.1327 13.9381 2.55562L13.5266 2.96713L13.1149 2.55542C10.1528 -0.40664 5.35036 -0.40664 2.3883 2.55542C-0.573768 5.51749 -0.573768 10.3199 2.3883 13.282L12.7016 23.5953C13.1572 24.051 13.8959 24.051 14.3515 23.5953L24.6649 13.282C26.0876 11.8599 26.887 9.93056 26.887 7.91872C26.887 5.90687 26.0876 3.97748 24.6651 2.55562C23.2428 1.1327 21.3134 0.333252 19.3016 0.333252ZM21.7783 12.8688L13.5266 21.1205L4.03821 11.6321C1.98737 9.58125 1.98737 6.25618 4.03821 4.20534C6.08905 2.1545 9.41412 2.1545 11.465 4.20534L12.7016 5.44201C13.1572 5.89762 13.8959 5.89762 14.3515 5.44201L15.5882 4.20534C16.573 3.22005 17.9088 2.66659 19.3016 2.66659C20.6944 2.66659 22.0301 3.22005 23.0152 4.20553C24.0003 5.19017 24.5537 6.5259 24.5537 7.91872C24.5537 9.31153 24.0003 10.6473 23.0152 11.6319L21.7783 12.8688Z" fill="black"/>
</svg>
