<svg width="24" height="26" viewBox="0 0 24 26" fill="none" xmlns="http://www.w3.org/2000/svg">
<path fill-rule="evenodd" clip-rule="evenodd" d="M0.783655 8.57917L11.2837 0.412504C11.705 0.0848295 12.2949 0.0848295 12.7162 0.412504L23.2162 8.57917C23.5004 8.8002 23.6666 9.14006 23.6666 9.50008V22.3334C23.6666 24.2664 22.0996 25.8334 20.1666 25.8334L15.4999 25.8334H8.49992L3.83325 25.8334C1.90026 25.8334 0.333252 24.2664 0.333252 22.3334V9.50008C0.333252 9.14006 0.49947 8.8002 0.783655 8.57917ZM9.66659 23.5H14.3333V14.1667H9.66659V23.5ZM16.6666 23.5V13.0001C16.6666 12.3557 16.1443 11.8334 15.4999 11.8334H8.49992C7.85559 11.8334 7.33325 12.3557 7.33325 13.0001V23.5H3.83325C3.18892 23.5 2.66659 22.9777 2.66659 22.3334V10.0706L11.9999 2.81138L21.3333 10.0706V22.3334C21.3333 22.9777 20.8109 23.5 20.1666 23.5H16.6666Z" fill="black"/>
</svg>
